<?xml version="1.0" encoding="utf-8"?>
<!-- Generator: Adobe Illustrator 22.0.1, SVG Export Plug-In . SVG Version: 6.00 Build 0)  -->
<svg version="1.1" id="Layer_1" xmlns="http://www.w3.org/2000/svg" xmlns:xlink="http://www.w3.org/1999/xlink" x="0px" y="0px"
	 viewBox="0 0 256 256" style="enable-background:new 0 0 256 256;" xml:space="preserve">
<style type="text/css">
	.st0{fill:#3A312A;}
	.st1{fill:#FCE8CB;}
	.st2{fill:#8AC5DC;}
	.st3{fill:#ED6E7A;}
	.st4{fill:#D7E057;}
	.st5{fill:#87796F;}
	.st6{fill:#695B51;}
	.st7{fill:#EF6D7A;}
	.st8{fill:#D6DF58;}
	.st9{fill:#6A5C52;}
	.st10{fill:#F16C7A;}
	.st11{fill:#8AC6DD;}
	.st12{fill:#D34E5C;}
	.st13{fill:#B9C239;}
	.st14{fill:#6CA8BF;}
	.st15{fill:#89C4DB;}
	.st16{fill:#D5DE58;}
	.st17{fill:#DECAAD;}
	.st18{fill:#D5DC57;}
	.st19{fill:#8AC3DA;}
	.st20{fill:#D4DB56;}
	.st21{fill:#EA6D7A;}
	.st22{fill:#FAE6CA;}
	.st23{fill:#EB6E7A;}
	.st24{fill:#F8E4C8;}
	.st25{fill:#E96C7A;}
	.st26{fill:#8AC2D9;}
	.st27{fill:#E86C7A;}
	.st28{fill:#8AC1D8;}
	.st29{fill:#D4DA55;}
</style>
<g>
	<g>
		<g>
			<path class="st0" d="M239.375,226.625h-209.5v-210.5c0-0.829-0.671-1.5-1.5-1.5s-1.5,0.671-1.5,1.5v212
				c0,0.829,0.671,1.5,1.5,1.5h211c0.828,0,1.5-0.671,1.5-1.5S240.203,226.625,239.375,226.625z"/>
		</g>
	</g>
	<g>
		<g>
			<path class="st0" d="M28.375,226.625c-0.829,0-1.5,0.671-1.5,1.5v11.75c0,0.829,0.671,1.5,1.5,1.5s1.5-0.671,1.5-1.5v-11.75
				C29.875,227.296,29.204,226.625,28.375,226.625z"/>
		</g>
	</g>
	<g>
		<g>
			<path class="st0" d="M58.22,226.625c-0.829,0-1.5,0.671-1.5,1.5v11.75c0,0.829,0.671,1.5,1.5,1.5c0.829,0,1.5-0.671,1.5-1.5
				v-11.75C59.72,227.296,59.049,226.625,58.22,226.625z"/>
		</g>
	</g>
	<g>
		<g>
			<path class="st0" d="M108.972,226.625c-0.829,0-1.5,0.671-1.5,1.5v11.75c0,0.829,0.671,1.5,1.5,1.5s1.5-0.671,1.5-1.5v-11.75
				C110.472,227.296,109.8,226.625,108.972,226.625z"/>
		</g>
	</g>
	<g>
		<g>
			<path class="st0" d="M159.233,226.625c-0.828,0-1.5,0.671-1.5,1.5v11.75c0,0.829,0.672,1.5,1.5,1.5c0.828,0,1.5-0.671,1.5-1.5
				v-11.75C160.733,227.296,160.061,226.625,159.233,226.625z"/>
		</g>
	</g>
	<g>
		<g>
			<path class="st0" d="M210.163,226.625c-0.828,0-1.5,0.671-1.5,1.5v11.75c0,0.829,0.672,1.5,1.5,1.5c0.828,0,1.5-0.671,1.5-1.5
				v-11.75C211.663,227.296,210.991,226.625,210.163,226.625z"/>
		</g>
	</g>
	<g>
		<g>
			<path class="st0" d="M28.375,226.625h-11.75c-0.829,0-1.5,0.671-1.5,1.5s0.671,1.5,1.5,1.5h11.75c0.829,0,1.5-0.671,1.5-1.5
				S29.204,226.625,28.375,226.625z"/>
		</g>
	</g>
	<g>
		<g>
			<path class="st0" d="M28.375,193.155h-11.75c-0.829,0-1.5,0.671-1.5,1.5s0.671,1.5,1.5,1.5h11.75c0.829,0,1.5-0.671,1.5-1.5
				S29.204,193.155,28.375,193.155z"/>
		</g>
	</g>
	<g>
		<g>
			<path class="st0" d="M28.375,159.695h-11.75c-0.829,0-1.5,0.671-1.5,1.5c0,0.829,0.671,1.5,1.5,1.5h11.75
				c0.829,0,1.5-0.671,1.5-1.5C29.875,160.366,29.204,159.695,28.375,159.695z"/>
		</g>
	</g>
	<g>
		<g>
			<path class="st0" d="M28.375,126.225h-11.75c-0.829,0-1.5,0.671-1.5,1.5s0.671,1.5,1.5,1.5h11.75c0.829,0,1.5-0.671,1.5-1.5
				S29.204,126.225,28.375,126.225z"/>
		</g>
	</g>
	<g>
		<g>
			<path class="st0" d="M28.375,92.765h-11.75c-0.829,0-1.5,0.671-1.5,1.5c0,0.829,0.671,1.5,1.5,1.5h11.75
				c0.829,0,1.5-0.671,1.5-1.5C29.875,93.436,29.204,92.765,28.375,92.765z"/>
		</g>
	</g>
	<g>
		<g>
			<path class="st0" d="M28.375,59.295h-11.75c-0.829,0-1.5,0.671-1.5,1.5s0.671,1.5,1.5,1.5h11.75c0.829,0,1.5-0.671,1.5-1.5
				S29.204,59.295,28.375,59.295z"/>
		</g>
	</g>
	<g>
		<g>
			<path class="st0" d="M28.375,25.835h-11.75c-0.829,0-1.5,0.671-1.5,1.5c0,0.829,0.671,1.5,1.5,1.5h11.75
				c0.829,0,1.5-0.671,1.5-1.5C29.875,26.506,29.204,25.835,28.375,25.835z"/>
		</g>
	</g>
	<g>
		<g>
			<polygon class="st7" points="39.806,68.332 39.806,117.995 39.806,131.255 39.806,228.125 76.283,228.125 76.283,68.332 			"/>
		</g>
	</g>
	<g>
		<g>
			<path class="st0" d="M76.283,66.833H39.807c-0.829,0-1.5,0.671-1.5,1.5v49.663c0,0.829,0.671,1.5,1.5,1.5
				c0.829,0,1.5-0.671,1.5-1.5V69.833h33.477v156.792H41.307v-95.37c0-0.829-0.671-1.5-1.5-1.5c-0.829,0-1.5,0.671-1.5,1.5v96.87
				c0,0.829,0.671,1.5,1.5,1.5h36.477c0.829,0,1.5-0.671,1.5-1.5V68.333C77.783,67.504,77.112,66.833,76.283,66.833z"/>
		</g>
	</g>
	<g>
		<g>
			<rect x="90.443" y="97.32" class="st8" width="36.477" height="130.805"/>
		</g>
	</g>
	<g>
		<g>
			<path class="st0" d="M126.92,95.82H90.443c-0.829,0-1.5,0.671-1.5,1.5v130.805c0,0.829,0.671,1.5,1.5,1.5h36.477
				c0.829,0,1.5-0.671,1.5-1.5V97.32C128.42,96.492,127.748,95.82,126.92,95.82z M125.42,226.625H91.943V98.82h33.477V226.625z"/>
		</g>
	</g>
	<g>
		<g>
			<polygon class="st2" points="141.08,48.125 141.08,61.002 141.08,74.248 141.08,228.125 177.557,228.125 177.557,48.125 			"/>
		</g>
	</g>
	<g>
		<g>
			<path class="st0" d="M177.557,46.625H141.08c-0.828,0-1.5,0.671-1.5,1.5v12.877c0,0.829,0.672,1.5,1.5,1.5
				c0.828,0,1.5-0.671,1.5-1.5V49.625h33.477v177H142.58V74.248c0-0.829-0.672-1.5-1.5-1.5c-0.828,0-1.5,0.671-1.5,1.5v153.877
				c0,0.829,0.672,1.5,1.5,1.5h36.477c0.828,0,1.5-0.671,1.5-1.5v-180C179.057,47.296,178.385,46.625,177.557,46.625z"/>
		</g>
	</g>
	<g>
		<g>
			<rect x="191.716" y="73.7" class="st5" width="36.477" height="154.425"/>
		</g>
	</g>
	<g>
		<g>
			<path class="st0" d="M228.193,72.2h-36.477c-0.828,0-1.5,0.671-1.5,1.5v154.425c0,0.829,0.672,1.5,1.5,1.5h36.477
				c0.828,0,1.5-0.671,1.5-1.5V73.7C229.693,72.872,229.021,72.2,228.193,72.2z M226.693,226.625h-33.477V75.2h33.477V226.625z"/>
		</g>
	</g>
	<g>
		<g>
			<rect x="211.69" y="75.2" class="st9" width="15" height="151.42"/>
		</g>
	</g>
</g>
</svg>
