<?xml version="1.0" encoding="UTF-8" standalone="no"?>
<!-- Created with Inkscape (http://www.inkscape.org/) -->

<svg
   width="271.49289mm"
   height="59.876732mm"
   viewBox="0 0 1026.1149 226.30576"
   version="1.1"
   id="svg1"
   xml:space="preserve"
   xmlns="http://www.w3.org/2000/svg"
   xmlns:svg="http://www.w3.org/2000/svg"><defs
     id="defs1" /><path
     style="fill:none;stroke:#d4af37;stroke-width:2.26772;stroke-linecap:round;stroke-linejoin:miter;stroke-dasharray:none;stroke-opacity:1"
     d="m 29.608603,54.464367 c 0,0 14.04359,-25.060556 -9.079898,-12.711876 C -2.5948207,54.101178 0.498798,71.92736 2.4898908,75.408705 4.4809835,78.89005 12.41731,86.183544 37.719998,81.219857 63.022686,76.256166 205.82249,37.884027 209.51199,41.268227 c 2.87127,2.633688 -94.54696,87.697733 -105.56617,129.561743 -13.485693,51.23451 46.0272,5.95476 51.10439,1.61181 5.07719,-4.34294 59.75319,-62.66377 59.75319,-62.66377 0,0 43.47345,-45.05576 42.59747,-43.808153 C 198.47539,149.89275 210.32803,194.82743 242.71101,166.96298 272.15958,141.62356 337.36179,44.086231 343.55519,27.59601 351.01258,7.7404 339.49348,-9.2678395 323.86574,8.7626336 285.55929,52.958634 299.96915,74.670011 333.11122,65.776398 346.45658,62.195194 495.96149,26.892659 680.50141,55.846079 773.7288,70.473005 833.81263,157.79668 738.37126,194.18578 725.95079,198.92134 621.60432,227.74345 454.15848,198.97973 286.71265,170.21602 200.07912,183.5706 200.07912,183.5706 125.0846,190.65688 -6.1687039,260.27588 252.29892,202.23277 379.96016,166.10491 1024.981,45.230899 1024.981,45.230899"
     id="path36" /><path
     style="fill:none;stroke:#d4af37;stroke-width:2.26772;stroke-linecap:round;stroke-dasharray:none;stroke-opacity:1"
     d="m 343.77369,104.70656 c 0,0 -11.86443,14.40681 -9.68527,29.66106 2.17916,15.25428 16.96267,1.94313 19.61265,-0.36321 9.68738,-8.43126 47.51663,-36.539487 45.8838,-34.98792 -6.05892,5.75731 -20.56675,15.60687 -8.86107,19.77627 15.56455,5.54388 -5.16256,17.25996 -4.57719,17.14869 4.76375,-0.90553 75.70854,-38.392029 77.23982,-73.607823 0.552,-12.69468 -10.51888,-8.571552 -13.80148,0.121058 -3.36907,8.921604 -19.3562,49.869005 -15.98067,67.433475 0.19616,1.02002 7.91819,-5.44703 21.33396,-19.79345 13.05354,-13.959066 8.55946,17.10613 9.05348,17.25108 0.49402,0.14475 15.66909,-23.93299 24.38577,-28.049214 8.71673,-4.116219 1.14029,25.469984 1.51155,25.790524 0.37115,0.32051 10.41165,-20.58114 23.4867,-26.392285 13.07509,-5.811148 -6.73489,30.650755 4.3756,21.383485 0,0 10.55678,-8.31939 26.46969,-25.345707 5.44607,-5.827124 -19.839,13.384557 6.67434,23.311927"
     id="path37" /><path
     style="fill:none;fill-opacity:1;stroke:#d4af37;stroke-width:2.26772;stroke-linecap:round;stroke-dasharray:none;stroke-opacity:1"
     d="m 340.38383,151.67997 c 0,0 2.42131,10.16954 61.5013,4.84263 59.07998,-5.32686 170.94454,-25.6659 229.05598,-28.57145 58.11144,-2.90558 47.94194,-14.52787 245.5209,-5.81115"
     id="path39" /><circle
     style="fill:#d4af37;fill-opacity:1;stroke:none;stroke-width:1.49843;stroke-dasharray:none;stroke-opacity:1"
     id="path38"
     cx="88.76796"
     cy="-349.57092"
     r="2.1184251"
     transform="rotate(90)" /><circle
     style="fill:#d4af37;fill-opacity:1;stroke:none;stroke-width:1.49859;stroke-dasharray:none"
     id="path38-6"
     cx="82.071114"
     cy="-553.4259"
     r="2.1184251"
     transform="rotate(90)" /></svg>
